<?xml version="1.0" encoding="UTF-8" standalone="no"?>
<svg
   xmlns:dc="http://purl.org/dc/elements/1.1/"
   xmlns:cc="http://creativecommons.org/ns#"
   xmlns:rdf="http://www.w3.org/1999/02/22-rdf-syntax-ns#"
   xmlns:svg="http://www.w3.org/2000/svg"
   xmlns="http://www.w3.org/2000/svg"
   xmlns:sodipodi="http://sodipodi.sourceforge.net/DTD/sodipodi-0.dtd"
   xmlns:inkscape="http://www.inkscape.org/namespaces/inkscape"
   width="172pt"
   height="56pt"
   viewBox="0 0 172 56"
   version="1.1"
   id="svg2"
   inkscape:version="0.91 r13725"
   sodipodi:docname="logo_tesaf.svg">
  <metadata
     id="metadata26">
    <rdf:RDF>
      <cc:Work
         rdf:about="">
        <dc:format>image/svg+xml</dc:format>
        <dc:type
           rdf:resource="http://purl.org/dc/dcmitype/StillImage" />
      </cc:Work>
    </rdf:RDF>
  </metadata>
  <defs
     id="defs24" />
  <sodipodi:namedview
     pagecolor="#ffffff"
     bordercolor="#666666"
     borderopacity="1"
     objecttolerance="10"
     gridtolerance="10"
     guidetolerance="10"
     inkscape:pageopacity="0"
     inkscape:pageshadow="2"
     inkscape:window-width="1280"
     inkscape:window-height="616"
     id="namedview22"
     showgrid="false"
     inkscape:zoom="1.6883721"
     inkscape:cx="30.099584"
     inkscape:cy="38.251699"
     inkscape:window-x="-8"
     inkscape:window-y="-8"
     inkscape:window-maximized="1"
     inkscape:current-layer="svg2" />
  <path
     fill="#b5101c"
     d=" M 41.00 4.00 C 50.67 4.00 60.33 4.00 70.00 4.00 C 70.00 7.67 70.00 11.33 70.00 15.00 C 60.33 15.00 50.67 15.00 41.00 15.00 C 41.00 11.33 41.00 7.67 41.00 4.00 Z"
     id="path6" />
  <path
     fill="#231f20"
     d=" M 80.68 5.56 C 86.03 3.14 92.72 2.95 97.86 6.00 C 101.74 8.38 102.42 13.31 102.32 17.47 C 99.75 17.47 97.18 17.47 94.62 17.48 C 94.52 15.34 94.56 12.86 92.88 11.25 C 89.98 8.73 84.62 9.10 82.72 12.67 C 81.27 15.77 81.74 20.16 84.84 22.10 C 90.11 25.75 97.76 25.59 101.64 31.24 C 104.41 35.80 104.05 41.93 101.68 46.59 C 99.31 51.07 93.86 52.66 89.12 52.71 C 84.86 52.93 80.16 52.19 77.08 48.97 C 74.01 45.81 73.55 41.19 73.45 37.01 C 76.01 37.00 78.58 37.00 81.15 37.00 C 81.29 40.04 81.39 43.73 84.15 45.67 C 87.60 47.75 93.30 47.30 95.14 43.26 C 96.66 39.75 95.63 34.82 91.95 33.09 C 86.81 30.63 80.42 30.05 76.60 25.37 C 72.38 19.27 73.59 9.01 80.68 5.56 Z"
     id="path8" />
  <path
     fill="#231f20"
     d=" M 4.76 4.76 C 15.07 4.75 25.39 4.77 35.70 4.75 C 35.70 8.25 35.70 11.75 35.70 15.25 C 32.62 15.24 29.54 15.24 26.46 15.24 C 26.49 27.39 26.45 39.55 26.49 51.70 C 22.33 51.69 18.17 51.70 14.00 51.70 C 13.99 39.55 14.01 27.39 14.00 15.24 C 10.92 15.24 7.84 15.24 4.76 15.24 C 4.76 11.75 4.76 8.25 4.76 4.76 Z"
     id="path10" />
  <path
     d="M 148.15039 5.9375 C 142.41289 25.4875 136.7875 45.074609 131.1875 64.662109 C 133.8125 64.637109 136.43672 64.625781 139.07422 64.613281 C 140.46172 59.313281 141.92461 54.0375 143.34961 48.75 L 161.80078 48.75 L 165.96289 64.613281 C 168.56289 64.625781 171.17461 64.638281 173.78711 64.675781 C 168.63711 45.075781 163.27578 25.525 158.05078 5.9375 C 154.75078 5.95 151.45039 5.95 148.15039 5.9375 z M 152.875 14.699219 C 155.425 23.949219 157.73672 33.25 160.26172 42.5 C 155.16172 42.5 150.06289 42.512109 144.96289 42.474609 C 147.50039 33.187109 150.325 23.986719 152.875 14.699219 z "
     transform="scale(0.8,0.8)"
     id="path12" />
  <path
     fill="#231f20"
     d=" M 142.00 4.76 C 150.16 4.75 158.32 4.77 166.47 4.75 C 166.47 6.50 166.47 8.25 166.47 10.00 C 160.31 10.00 154.16 10.00 148.00 10.00 C 148.00 14.84 147.99 19.69 148.01 24.53 C 153.83 24.52 159.65 24.53 165.48 24.52 C 165.47 26.35 165.47 28.17 165.47 30.00 C 159.65 30.00 153.82 30.00 148.00 30.00 C 148.00 37.23 148.00 44.47 148.00 51.70 C 146.00 51.70 144.00 51.70 142.00 51.70 C 142.00 36.05 142.00 20.41 142.00 4.76 Z"
     id="path14" />
  <path
     fill="#b5101c"
     d=" M 41.00 22.00 C 50.33 22.00 59.67 22.00 69.00 22.00 C 69.00 25.67 69.00 29.33 69.00 33.00 C 59.67 33.00 50.33 33.00 41.00 33.00 C 41.00 29.33 41.00 25.67 41.00 22.00 Z"
     id="path18" />
  <path
     fill="#b5101c"
     d=" M 41.00 41.00 C 50.67 41.00 60.33 41.00 70.00 41.00 C 70.00 44.67 70.00 48.33 70.00 52.00 C 60.33 52.00 50.67 52.00 41.00 52.00 C 41.00 48.33 41.00 44.67 41.00 41.00 Z"
     id="path20" />
</svg>
